<svg xmlns="http://www.w3.org/2000/svg" version="1.1" xmlns:xlink="http://www.w3.org/1999/xlink" xmlns:svgjs="http://svgjs.dev/svgjs" width="1500" height="1500" viewBox="0 0 1500 1500"><rect width="1500" height="1500" fill="#ffffff"></rect><g transform="matrix(0.6666666666666666,0,0,0.6666666666666666,249.39393939393938,438.5856950067477)"><svg viewBox="0 0 396 247" data-background-color="#dfdad6" preserveAspectRatio="xMidYMid meet" height="935" width="1500" xmlns="http://www.w3.org/2000/svg" xmlns:xlink="http://www.w3.org/1999/xlink"><g id="tight-bounds" transform="matrix(1,0,0,1,0.2400000000000091,-0.09999999999999432)"><svg viewBox="0 0 395.52 247.2" height="247.2" width="395.52"><g><svg></svg></g><g><svg viewBox="0 0 395.52 247.2" height="247.2" width="395.52"><g transform="matrix(1,0,0,1,75.54432,83.494272)"><svg viewBox="0 0 244.43135999999998 80.211456" height="80.211456" width="244.43135999999998"><g><svg viewBox="0 0 244.43135999999998 80.211456" height="80.211456" width="244.43135999999998"><g><svg viewBox="0 0 244.43135999999998 80.211456" height="80.211456" width="244.43135999999998"><g><svg viewBox="0 0 244.43135999999998 80.211456" height="80.211456" width="244.43135999999998"><g id="textblocktransform"><svg viewBox="0 0 244.43135999999998 80.211456" height="80.211456" width="244.43135999999998" id="textblock"><g><svg viewBox="0 0 244.43135999999998 80.211456" height="80.211456" width="244.43135999999998"><g transform="matrix(1,0,0,1,0,0)"><svg width="244.43135999999998" viewBox="1.37 -32.76 100.58 33" height="80.211456" data-palette-color="#e33e33"><path d="M10.86-32.13Q14.21-32.03 16.36-32.03 18.51-32.03 21.88-32.13 25.24-32.23 27.1-32.23L27.1-32.23Q28.32-32.23 30.47-32.76L30.47-32.76 31.4-25.78Q31.05-25.44 30.22-25.44L30.22-25.44Q29.79-25.44 29.74-25.68L29.74-25.68Q29.05-28.42 28.05-29.22 27.05-30.03 24.27-30.03L24.27-30.03Q19.09-30.03 18.9-29.3L18.9-29.3Q18.46-27.73 18.46-24.41L18.46-24.41 18.46-6.79Q18.46-3.96 18.9-2.25L18.9-2.25Q18.99-1.9 20.26-1.59 21.53-1.27 22.02-1.27L22.02-1.27Q22.22-1.27 22.22-0.54L22.22-0.54Q22.22-0.15 22.12 0.15L22.12 0.15Q17.24-0.1 16.46-0.1L16.46-0.1Q16.21-0.1 10.6 0.15L10.6 0.15Q10.4-0.05 10.4-0.59L10.4-0.59Q10.4-1.27 10.6-1.27L10.6-1.27Q11.23-1.27 12.48-1.56 13.72-1.86 13.87-2.25L13.87-2.25Q14.21-3.56 14.21-6.59L14.21-6.59 14.21-24.27Q14.21-28.52 13.77-29.3L13.77-29.3Q13.38-30.03 8.5-30.03L8.5-30.03Q5.71-30.03 4.71-29.22 3.71-28.42 3.03-25.68L3.03-25.68Q2.98-25.44 2.54-25.44L2.54-25.44Q1.71-25.44 1.37-25.78L1.37-25.78 2.29-32.76Q4.44-32.23 5.66-32.23L5.66-32.23Q7.52-32.23 10.86-32.13ZM40.33-32.03L40.33-32.03Q42.19-32.03 45.04-32.08 47.9-32.13 48.83-32.13L48.83-32.13Q56.78-32.13 61.23-27.44 65.67-22.75 65.67-16.41L65.67-16.41Q65.67-9.33 61.18-4.59 56.69 0.15 48.78 0.15L48.78 0.15Q48.19 0.15 45.29 0.05 42.38-0.05 40.43 0L40.43 0 34.52 0.15Q34.37 0 34.37-0.59L34.37-0.59Q34.37-1.27 34.52-1.27L34.52-1.27Q35.15-1.27 36.4-1.61 37.64-1.95 37.89-2.39L37.89-2.39Q38.23-2.98 38.23-6.98L38.23-6.98 38.23-25.44Q38.23-28.32 37.89-29.64L37.89-29.64Q37.74-30.03 36.45-30.37 35.15-30.71 34.52-30.71L34.52-30.71Q34.32-30.71 34.32-31.3L34.32-31.3Q34.32-31.93 34.52-32.13L34.52-32.13Q37.06-32.03 40.33-32.03ZM42.48-26.12L42.48-26.12 42.48-6.79Q42.48-4.74 43.21-3.08L43.21-3.08Q43.41-2.59 45.82-2.34 48.24-2.1 49.56-2.1L49.56-2.1Q60.79-2.1 60.79-16.6L60.79-16.6Q60.79-22.17 57.83-26.07 54.88-29.98 49.22-29.98L49.22-29.98 48.97-29.98Q43.7-29.98 43.11-29.2L43.11-29.2Q42.48-28.32 42.48-26.12ZM94.82-10.4L94.82-25.59Q94.82-28.56 94.48-29.88L94.48-29.88Q94.33-30.27 92.79-30.64 91.25-31.01 90.62-31.01L90.62-31.01Q90.42-31.01 90.42-31.57 90.42-32.13 90.62-32.32L90.62-32.32Q91.25-32.28 93.16-32.15 95.06-32.03 96.38-32.03L96.38-32.03Q97.65-32.03 99.58-32.18 101.51-32.32 101.85-32.32L101.85-32.32Q101.95-32.03 101.95-31.59L101.95-31.59Q101.95-31.01 101.75-31.01L101.75-31.01Q101.26-31.01 99.63-30.62 97.99-30.22 97.9-29.88L97.9-29.88Q97.5-28.37 97.5-25.34L97.5-25.34 97.5-6.79Q97.5-3.76 97.65 0.05L97.65 0.05Q97.46 0.24 96.72 0.24L96.72 0.24Q95.89 0.24 95.11-0.88L95.11-0.88 76.17-27.73 76.17-6.88Q76.17-3.66 76.51-2.34L76.51-2.34Q76.61-2 78.14-1.64 79.68-1.27 80.17-1.27L80.17-1.27Q80.32-1.27 80.34-0.68 80.37-0.1 80.27 0.15L80.27 0.15Q75.39-0.1 74.65-0.1L74.65-0.1 69.04 0.15Q68.89 0 68.89-0.59L68.89-0.59Q68.89-1.27 69.04-1.27L69.04-1.27Q69.72-1.27 71.26-1.64 72.8-2 72.94-2.44L72.94-2.44Q73.43-3.71 73.43-7.03L73.43-7.03 73.43-26.22Q73.43-28.61 73.09-29.88L73.09-29.88Q72.94-30.27 71.43-30.59 69.92-30.91 69.23-30.91L69.23-30.91Q69.04-30.91 69.04-31.52 69.04-32.13 69.23-32.32L69.23-32.32Q73.04-32.23 74.21-32.23L74.21-32.23Q76.75-32.23 78.12-32.32L78.12-32.32Q79.93-29 94.67-8.4L94.67-8.4Q94.82-9.23 94.82-10.4L94.82-10.4Z" opacity="1" transform="matrix(1,0,0,1,0,0)" fill="#000000" class="wordmark-text-0" data-fill-palette-color="primary" id="text-0"></path></svg></g></svg></g></svg></g></svg></g></svg></g></svg></g></svg></g><g><path d="M245.816 0c68.262 0 123.6 55.338 123.6 123.6 0 68.262-55.338 123.6-123.6 123.6-50.632 0-94.154-30.445-113.257-74.026h3.961c18.867 41.53 60.709 70.409 109.296 70.409 66.265 0 119.983-53.718 119.983-119.983 0-66.265-53.718-119.983-119.983-119.983-48.587 0-90.428 28.88-109.296 70.409l-3.961 0c19.103-43.582 62.625-74.026 113.257-74.026z" fill="#000000" stroke="transparent" data-fill-palette-color="tertiary"></path></g></svg></g><defs></defs></svg><rect width="395.52" height="247.2" fill="none" stroke="none" visibility="hidden"></rect></g></svg></g></svg>