<svg xmlns="http://www.w3.org/2000/svg" viewBox="0 0 333 42" width="793" height="100">
	<defs>
		<clipPath clipPathUnits="userSpaceOnUse" id="cp1">
			<path d="M0.05 0L68 0L68 42L0.05 42L0.05 0Z" />
		</clipPath>
	</defs>
	<style>
		tspan { white-space:pre }
		.shp0 { fill: #d1a352 } 
		.shp1 { fill: #035f7f } 
	</style>
	<g id="surface1">
		<g id="Clip-Path: Clip-Path" clip-path="url(#cp1)">
			<g id="Clip-Path">
				<g id="Layer">
					<path id="Layer" class="shp0" d="M34.22 37.73C33.63 38.07 29.41 41.64 21.02 41.64C13.95 41.64 6.4 38.02 4.04 38.09C3.2 38.06 2.53 38.23 2.01 38.46C1.02 38.87 0.05 38.27 0.59 37.25C2.45 33.73 5.61 31.57 8.59 30.67C10.77 30.01 12.77 29.79 13.8 30.93C16.07 33.45 20.18 36.57 24.16 36.98C24.48 37.01 25.93 37.13 25.95 36.72C25.97 36.47 25.47 36.3 24.97 36.27C20.9 35.97 13.55 31.61 9.52 23.17C8 20 6.8 16.93 4.16 15.59C3.58 15.31 3.56 14.23 4.79 13.93C5.64 13.73 11.07 13.21 17.27 16.47C20.11 17.97 20.51 19.32 20.52 20.49C20.5 29.34 24.97 32.85 26.7 33.89C27.67 34.46 28.57 34.71 28.67 34.41C28.75 34.16 28.49 33.98 28.27 33.85C22.9 30.59 21.48 25.58 21.44 20.47C21.4 15.42 23.27 11.05 24.6 7.47C24.79 6.96 25.42 4.83 24.89 2.86C24.49 1.38 24.81 0.95 25.59 0.95C26.44 0.95 27.57 2.33 27.95 2.8C28.26 3.16 29.25 4.36 30.74 7.32C33.7 13.16 33.72 19.28 33.72 20.02C33.72 24.22 32.64 24.71 30.87 25.58C29.11 26.45 28.27 27.57 28.27 28.88C28.27 30.21 29.2 31.6 30.87 32.09C32.17 32.47 32.99 32.33 32.92 31.99C32.87 31.73 32.29 31.66 32.13 31.61C30.36 31.13 29.19 30.23 29.19 28.88C29.19 27.18 31.28 25.94 34.21 25.94C37.16 25.94 39.24 27.18 39.24 28.88C39.24 30.23 38.07 31.14 36.31 31.62C36.14 31.66 35.57 31.73 35.51 31.99C35.44 32.33 36.27 32.47 37.57 32.09C39.24 31.61 40.17 30.21 40.16 28.88C40.16 27.57 39.33 26.45 37.56 25.58C35.8 24.71 34.71 24.22 34.71 20.02C34.71 19.28 34.74 13.16 37.7 7.32C39.19 4.37 40.18 3.16 40.48 2.8C40.86 2.33 42 0.95 42.85 0.95C43.63 0.95 43.95 1.38 43.55 2.86C43.02 4.83 43.64 6.96 43.84 7.47C45.16 11.05 47.04 15.42 47 20.47C46.95 25.58 45.53 30.59 40.17 33.85C39.95 33.98 39.69 34.16 39.77 34.41C39.86 34.71 40.77 34.47 41.73 33.89C43.46 32.85 47.94 29.34 47.91 20.49C47.92 19.32 48.32 17.97 51.17 16.47C57.37 13.21 62.79 13.73 63.65 13.94C64.88 14.23 64.86 15.31 64.27 15.59C61.63 16.93 60.43 20 58.92 23.17C54.88 31.61 47.54 35.98 43.46 36.27C42.96 36.3 42.46 36.47 42.48 36.72C42.5 37.13 43.95 37.01 44.27 36.98C48.26 36.57 52.36 33.46 54.64 30.93C55.67 29.79 57.66 30.01 59.84 30.67C62.83 31.57 65.98 33.73 67.84 37.25C68.38 38.27 67.42 38.87 66.43 38.46C65.9 38.23 65.23 38.06 64.4 38.09C62.03 38.02 54.48 41.64 47.41 41.64C39.02 41.64 34.8 38.07 34.22 37.73Z" />
				</g>
			</g>
		</g>
		<path id="Layer" fill-rule="evenodd" class="shp1" d="M125.48 20.25L125.48 18.52C125.48 17.21 125.77 16.75 126.86 16.04C127.7 15.49 128.05 15.3 128.35 15.27C128.75 15.24 129.26 15.48 129.26 16.14L129.26 20.28C129.26 20.67 129.25 20.72 129.71 20.72L133.13 20.72C133.72 20.72 133.74 21.06 133.74 21.72C133.74 22.36 133.72 22.7 133.13 22.7L129.73 22.7C129.25 22.7 129.25 22.75 129.25 23.23L129.26 35.53C129.26 38.25 130.82 38.59 132.06 38.59C132.58 38.59 132.84 38.47 133.23 38.43C133.77 38.36 134.09 38.58 134.11 39.06C134.13 39.89 132.59 40.58 130.25 40.55C127.88 40.51 125.48 39.98 125.48 35.5C125.48 35.5 125.47 24.13 125.48 23.19C125.49 22.74 125.47 22.7 125.05 22.7L122.96 22.7C122.36 22.7 122.36 22.36 122.36 21.72C122.36 21.05 122.37 20.72 122.96 20.72C122.96 20.72 124.16 20.73 125.05 20.72C125.46 20.71 125.48 20.72 125.48 20.25ZM248.83 39.38C248.83 40.2 248.43 40.2 246.95 40.2C245.46 40.2 245.06 40.2 245.06 39.38L245.06 23.68C245.06 22.55 245.63 21.83 246.89 21.33C248.03 20.89 249.67 20.33 252.83 20.43C256.14 20.54 258.26 21.6 258.26 23.2C258.26 24.13 257.68 24.66 256.74 24.66C254.66 24.66 255 22.35 252.09 22.35C250.38 22.35 248.83 23.12 248.83 24.56L248.83 39.38ZM153.45 39.39C153.45 40.22 153.05 40.22 151.56 40.22C150.09 40.22 149.68 40.22 149.68 39.39L149.68 27.36C149.68 24.83 148.66 22.42 144.59 22.42C140.29 22.42 139.85 24.13 139.85 25.37L139.86 39.39C139.86 40.22 139.46 40.22 137.97 40.22C136.5 40.22 136.09 40.22 136.09 39.39L136.08 24.21C136.08 23.05 136.19 22.35 137.45 21.79C138.73 21.22 141.46 20.45 144.5 20.45C148.27 20.45 153.46 21.4 153.45 27.36L153.45 39.39ZM237.67 23.41C237.67 22.11 237.7 21.78 238.74 21.1C239.66 20.5 241.47 20.17 241.46 21.48L241.44 39.37C241.44 40.19 241.03 40.19 239.55 40.19C238.08 40.19 237.68 40.19 237.68 39.37L237.67 23.41ZM239.94 17.34C238.68 17.6 237.59 17 237.38 16.02C237.16 15.04 237.92 14.05 239.18 13.79C240.44 13.52 241.54 14.12 241.75 15.1C241.96 16.08 241.2 17.07 239.94 17.34ZM259.48 15.68C259.48 14.38 259.52 14.04 260.55 13.37C261.47 12.77 263.28 12.44 263.27 13.75L263.25 39.39C263.25 40.21 262.84 40.21 261.36 40.21C259.89 40.21 259.48 40.21 259.48 39.39L259.48 15.68ZM269.73 17.34C268.46 17.61 267.37 17.01 267.16 16.03C266.95 15.05 267.7 14.06 268.96 13.79C270.23 13.53 271.32 14.13 271.53 15.11C271.74 16.09 270.99 17.08 269.73 17.34ZM267.46 23.43C267.46 22.12 267.49 21.79 268.52 21.11C269.45 20.51 271.25 20.18 271.24 21.49L271.23 39.38C271.23 40.2 270.82 40.2 269.34 40.2C267.87 40.2 267.46 40.2 267.46 39.38L267.46 23.43ZM227.39 31.66C224.77 31.67 219.11 31.67 217.13 31.67C216.61 31.67 216.56 31.85 216.38 32.29L213.48 39.55C213.2 40.19 213.02 40.23 211.53 40.23C209.93 40.23 209.57 40.23 209.97 39.27C210.09 38.99 219.5 16.37 220.04 15.08C220.57 13.81 220.83 13.76 222.76 13.76C224.71 13.76 224.93 13.85 225.45 15.08C225.98 16.31 235.36 38.82 235.48 39.11C235.92 40.23 235.56 40.23 233.44 40.23C231.64 40.24 231.45 40.23 231.18 39.56C230.95 38.94 229.42 35.32 228.13 32.27C227.94 31.8 227.89 31.66 227.39 31.66ZM218.02 29.35L226.47 29.35C226.88 29.35 226.84 29.09 226.72 28.79C226.18 27.36 222.57 18.16 222.32 17.51C222.25 17.35 222.1 17.35 222.05 17.5C221.86 18.03 218.28 27.39 217.72 28.81C217.63 29.04 217.51 29.35 218.02 29.35ZM292.7 39.41C292.7 40.24 292.3 40.24 290.81 40.24C289.34 40.24 288.93 40.24 288.93 39.41L288.93 27.37C288.93 24.85 287.91 22.44 283.84 22.44C279.54 22.44 279.1 24.15 279.1 25.39L279.11 39.41C279.11 40.24 278.71 40.24 277.22 40.24C275.75 40.24 275.34 40.24 275.34 39.41L275.33 24.22C275.33 23.07 275.44 22.36 276.7 21.8C277.98 21.24 280.71 20.47 283.75 20.47C287.52 20.47 292.71 21.41 292.7 27.37L292.7 39.41ZM324.14 40.66C318.29 40.66 315.88 37.45 315.88 36.06C315.88 35.05 316.5 34.39 317.52 34.37C318.67 34.35 319.16 35.03 319.53 35.77C320.29 37.62 321.69 38.68 324.32 38.66C326.95 38.63 328.77 37.73 328.77 35.78C328.8 31.07 316.46 32.52 316.46 25.73C316.46 22.1 319.57 20.35 324.17 20.38C329.71 20.41 331.74 22.99 331.74 24.45C331.74 25.42 331.04 25.95 330.21 25.95C329.11 25.95 328.54 25.34 328.26 24.69C327.65 23.29 326.7 22.32 323.81 22.32C321.81 22.32 319.96 23.15 319.96 24.95C319.96 29.55 332.29 28.34 332.43 34.94C332.52 38.73 328.94 40.66 324.14 40.66ZM95.25 23.43C95.25 22.12 95.29 21.79 96.32 21.11C97.24 20.51 99.05 20.18 99.04 21.49L99.02 39.38C99.02 40.2 98.61 40.2 97.13 40.2C95.66 40.2 95.25 40.2 95.25 39.38L95.25 23.43ZM155.82 35.55C155.82 30.27 163.29 28.46 169.04 27.54C169.35 27.5 169.35 27.43 169.35 27.08L169.35 25.94C169.36 23.34 167.4 22.34 165.22 22.34C162.43 22.34 161.08 23.48 160.3 25.31C160.04 25.9 159.4 26.61 158.34 26.58C157.23 26.55 156.67 25.86 156.72 24.92C156.82 23.14 159.36 20.4 165.75 20.39C169.66 20.38 173.07 22.09 173.07 26.2L173.07 36.98C173.07 37.84 173.07 38.59 171.66 39.26C169.77 40.13 168.18 40.68 165.04 40.66C159.76 40.66 155.82 38.84 155.82 35.55ZM169.35 29.81C169.35 29.45 169.19 29.48 168.95 29.53C164.26 30.52 159.77 31.77 159.77 35.25C159.77 37.16 161.46 38.61 164.84 38.61C166.76 38.61 169.35 38.08 169.35 36.09L169.35 29.81ZM97.52 17.34C96.26 17.61 95.17 17.01 94.96 16.03C94.75 15.05 95.5 14.06 96.76 13.79C98.02 13.53 99.12 14.13 99.33 15.11C99.54 16.09 98.79 17.08 97.52 17.34ZM201.08 26.86C201.08 24.34 199.84 22.44 196.92 22.44C193.93 22.44 192.62 24.3 192.62 26.8L192.62 39.41C192.62 40.23 192.21 40.23 190.74 40.23C189.26 40.23 188.85 40.23 188.85 39.41L188.85 27.04C188.85 23.76 187.15 22.45 184.36 22.45C182.13 22.45 180.43 23.04 180.43 25.16L180.42 39.41C180.42 40.23 180.01 40.23 178.54 40.23C177.06 40.23 176.65 40.23 176.65 39.41L176.65 24.11C176.65 23.32 176.65 22.49 178.05 21.88C179.98 21.02 182.14 20.49 184.35 20.49C187.56 20.49 189.39 21.36 190.77 22.85C192.05 21.43 193.93 20.49 197.23 20.49C200.05 20.49 204.82 21.54 204.82 26.63L204.82 39.41C204.82 40.23 204.42 40.23 202.94 40.23C201.46 40.23 201.05 40.23 201.05 39.41L201.08 26.86ZM112.7 40.65C107.92 40.65 102.32 37.99 102.32 30.49C102.32 23.45 106.63 20.39 112.25 20.39C117.65 20.39 121.42 24.13 121.42 28.17C121.42 28.88 121.4 29.73 120.12 29.72C113.43 29.71 106.79 29.71 106.54 29.72C106.29 29.73 106.22 29.87 106.22 30.04C106.11 34.93 108.64 38.09 113.05 38.05C116.31 38.02 118.75 36.03 119.75 34.34C120.02 33.88 120.23 33.73 120.66 33.73C121.14 33.73 121.4 34.07 121.4 34.41C121.4 36.18 118.47 40.65 112.7 40.65ZM106.55 27.64L116.58 27.64C117.49 27.64 117.69 27.54 117.65 26.78C117.52 24.13 114.91 22.32 111.94 22.34C108.39 22.37 106.6 24.98 106.26 27.33C106.24 27.51 106.27 27.64 106.55 27.64ZM305.54 40.65C300.77 40.65 295.17 37.99 295.17 30.49C295.17 23.45 299.48 20.39 305.09 20.39C310.5 20.39 314.27 24.13 314.27 28.17C314.27 28.88 314.25 29.73 312.97 29.72C306.28 29.71 299.64 29.71 299.39 29.72C299.14 29.73 299.07 29.87 299.07 30.04C298.96 34.93 301.5 38.09 305.9 38.05C309.16 38.02 311.61 36.03 312.61 34.34C312.86 33.88 313.08 33.73 313.52 33.73C313.99 33.73 314.25 34.07 314.25 34.41C314.25 36.18 311.32 40.65 305.54 40.65ZM299.4 27.64L309.43 27.64C310.34 27.64 310.54 27.54 310.5 26.78C310.37 24.13 307.76 22.32 304.79 22.34C301.25 22.37 299.45 24.98 299.11 27.33C299.09 27.51 299.13 27.64 299.4 27.64ZM69.23 15.1C68.75 13.92 68.59 13.69 71 13.69C73.2 13.69 73.25 13.88 73.45 14.4C73.45 14.4 81.61 34.9 81.87 35.48C81.94 35.64 82.11 35.63 82.16 35.5C82.33 35.02 90.37 14.46 90.37 14.46C90.65 13.82 90.79 13.73 92.27 13.73C93.96 13.73 94.14 13.82 93.72 14.87C91.82 19.59 84.64 37.63 84.09 38.9C83.54 40.16 83.5 40.23 81.61 40.23C79.64 40.23 79.52 40.14 79.01 38.91C78.49 37.68 69.34 15.39 69.23 15.1Z" />
	</g>
</svg>